<svg width="270" height="34" viewBox="0 0 270 34" fill="none" xmlns="http://www.w3.org/2000/svg">
  <!-- <path d="M13.168 33.836C11.1147 33.836 9.31067 33.484 7.756 32.78C6.23067 32.076 4.95467 31.1373 3.928 29.964C2.93067 28.7613 2.168 27.4267 1.64 25.96C1.14133 24.4933 0.892 22.9973 0.892 21.472V20.636C0.892 19.052 1.14133 17.5267 1.64 16.06C2.168 14.564 2.93067 13.244 3.928 12.1C4.95467 10.9267 6.216 10.0027 7.712 9.328C9.208 8.624 10.9387 8.272 12.904 8.272C15.4853 8.272 17.6413 8.844 19.372 9.988C21.132 11.1027 22.452 12.584 23.332 14.432C24.212 16.2507 24.652 18.216 24.652 20.328V22.528H3.488V18.788H20.824L18.932 20.636C18.932 19.1107 18.712 17.8053 18.272 16.72C17.832 15.6347 17.1573 14.7987 16.248 14.212C15.368 13.6253 14.2533 13.332 12.904 13.332C11.5547 13.332 10.4107 13.64 9.472 14.256C8.53333 14.872 7.81467 15.7667 7.316 16.94C6.84667 18.084 6.612 19.4627 6.612 21.076C6.612 22.572 6.84667 23.9067 7.316 25.08C7.78533 26.224 8.504 27.1333 9.472 27.808C10.44 28.4533 11.672 28.776 13.168 28.776C14.664 28.776 15.8813 28.4827 16.82 27.896C17.7587 27.28 18.36 26.532 18.624 25.652H24.256C23.904 27.2947 23.2293 28.732 22.232 29.964C21.2347 31.196 19.9587 32.1493 18.404 32.824C16.8787 33.4987 15.1333 33.836 13.168 33.836Z" fill="white"/> -->
  <!-- <path d="M265.19 33V28.644H269.326V33H265.19Z" fill="#F13024"/> -->
  <!-- Adding the name -->
  <text x="135" y="22" fill="white" font-size="28" font-family="Arial" text-anchor="middle" font-weight="bold">Aayush Chauhan</text>
</svg>
